<svg width="12" height="12" viewBox="0 0 12 12" fill="none" xmlns="http://www.w3.org/2000/svg">
<path d="M11.9999 6.03598C12.0002 4.88929 11.6718 3.76655 11.0538 2.80069C10.4357 1.83482 9.55383 1.0663 8.51253 0.586105C7.47123 0.105913 6.31414 -0.0658339 5.17826 0.0912013C4.04237 0.248237 2.97528 0.727476 2.10332 1.47218C1.23136 2.21688 0.591063 3.19584 0.258236 4.29317C-0.074591 5.39049 -0.0860044 6.5602 0.225347 7.66381C0.536699 8.76742 1.15777 9.75869 2.01504 10.5203C2.8723 11.2818 3.92984 11.7818 5.06244 11.961V7.76998H3.53919V6.03598H5.06244V4.71373C5.02964 4.40506 5.06514 4.09296 5.16641 3.79955C5.26768 3.50613 5.43225 3.23858 5.64846 3.01586C5.86467 2.79314 6.12721 2.62071 6.4175 2.51077C6.70778 2.40084 7.01869 2.3561 7.32819 2.37973C7.77821 2.38564 8.22718 2.42475 8.67144 2.49673V3.97498H7.91544C7.78666 3.95814 7.65574 3.97047 7.53237 4.01106C7.409 4.05166 7.29633 4.11947 7.20271 4.20949C7.10909 4.29951 7.03691 4.40943 6.99151 4.53111C6.94612 4.6528 6.92866 4.78313 6.94044 4.91248V6.03748H8.60469L8.33844 7.77148H6.93744V11.9647C8.34912 11.7414 9.63471 11.0215 10.5628 9.93461C11.4909 8.84771 12.0005 7.46521 11.9999 6.03598Z" fill="white"/>
</svg>
