<svg width="12" height="12" viewBox="0 0 12 12" fill="none" xmlns="http://www.w3.org/2000/svg">
<path d="M8.99994 12H2.99994C1.45794 12 -6.10352e-05 10.542 -6.10352e-05 9V3C-6.10352e-05 1.458 1.45794 0 2.99994 0H8.99994C10.5419 0 11.9999 1.458 11.9999 3V9C11.9999 10.542 10.5419 12 8.99994 12ZM2.99994 1.5C2.29869 1.5 1.49994 2.29875 1.49994 3V9C1.49994 9.71475 2.28519 10.5 2.99994 10.5H8.99994C9.70119 10.5 10.4999 9.70125 10.4999 9V3C10.4999 2.29875 9.70119 1.5 8.99994 1.5H2.99994Z" fill="white"/>
</svg>
