<svg width="10" height="10" viewBox="0 0 10 10" fill="none" xmlns="http://www.w3.org/2000/svg">
<path d="M8.5 0.5H1.5C0.9475 0.5 0.5 0.9475 0.5 1.5V8.5C0.5 9.0525 0.9475 9.5 1.5 9.5H8.5C9.0525 9.5 9.5 9.0525 9.5 8.5V1.5C9.5 0.9475 9.0525 0.5 8.5 0.5ZM2.869 7.5C2.5205 7.5 2.238 7.2175 2.238 6.869V4.6305C2.2385 4.2825 2.521 4 2.869 4C3.2175 4 3.5 4.2825 3.5 4.631V6.8695C3.5 7.2175 3.2175 7.5 2.869 7.5ZM2.847 3.3585C2.4615 3.3585 2.204 3.1015 2.204 2.7585C2.204 2.4155 2.461 2.1585 2.8895 2.1585C3.275 2.1585 3.5325 2.4155 3.5325 2.7585C3.5325 3.1015 3.2755 3.3585 2.847 3.3585ZM7.3895 7.5C7.0525 7.5 6.779 7.2265 6.779 6.8895V5.587C6.779 5.058 6.4535 5 6.3315 5C6.2095 5 5.8025 5.0175 5.8025 5.587V6.8895C5.8025 7.2265 5.529 7.5 5.192 7.5H5.1515C4.8145 7.5 4.541 7.2265 4.541 6.8895V4.631C4.541 4.2825 4.8235 4 5.172 4C5.5205 4 5.803 4.2825 5.803 4.631C5.803 4.631 5.944 4 6.902 4C7.5115 4 8 4.4885 8 5.587V6.8895C8 7.2265 7.7265 7.5 7.3895 7.5Z" fill="white"/>
</svg>
