<svg width="12" height="10" viewBox="0 0 12 10" fill="none" xmlns="http://www.w3.org/2000/svg">
<path d="M11.9999 1.125C11.5499 1.35 11.0999 1.425 10.5749 1.5C11.0999 1.2 11.4749 0.75 11.6249 0.15C11.1749 0.45 10.6499 0.6 10.0499 0.75C9.59994 0.3 8.92494 0 8.24994 0C6.97494 0 5.84994 1.125 5.84994 2.475C5.84994 2.7 5.84994 2.85 5.92494 3C3.89994 2.925 2.02494 1.95 0.824939 0.45C0.599939 0.825 0.524939 1.2 0.524939 1.725C0.524939 2.55 0.974939 3.3 1.64994 3.75C1.27494 3.75 0.899939 3.6 0.524939 3.45C0.524939 4.65 1.34994 5.625 2.47494 5.85C2.24994 5.925 2.02494 5.925 1.79994 5.925C1.64994 5.925 1.49994 5.925 1.34994 5.85C1.64994 6.825 2.54994 7.575 3.67494 7.575C2.84994 8.25 1.79994 8.625 0.599939 8.625C0.374939 8.625 0.224939 8.625 -6.10352e-05 8.625C1.12494 9.3 2.39994 9.75 3.74994 9.75C8.24994 9.75 10.7249 6 10.7249 2.775C10.7249 2.7 10.7249 2.55 10.7249 2.475C11.2499 2.1 11.6999 1.65 11.9999 1.125Z" fill="white"/>
</svg>
